<svg xmlns="http://www.w3.org/2000/svg" id="icon-1" viewBox="0 0 88.877 88.877">
  <g id="worldwide-internet-svgrepo-com" transform="translate(-37 -15)">
    <g id="Groupe_2" data-name="Groupe 2" transform="translate(37 15)">
      <path id="Tracé_1" data-name="Tracé 1" d="M87.877,43.438A44.471,44.471,0,0,0,45.017-.969L44.971-1H41.906l-.047.031a44.435,44.435,0,0,0,0,88.815l.047.031h3.065l.047-.031A44.471,44.471,0,0,0,87.877,43.438ZM2.1,44.971H20.474a56.8,56.8,0,0,0,3.684,18.693,54.008,54.008,0,0,0-12.352,6.424A41.188,41.188,0,0,1,2.1,44.971Zm10.419-29a56.868,56.868,0,0,0,12.159,5.936,56.767,56.767,0,0,0-4.2,20H2.1A41.2,41.2,0,0,1,12.515,15.97ZM84.781,41.906H66.4A56.767,56.767,0,0,0,62.2,21.9a55.229,55.229,0,0,0,12.113-5.983A41.2,41.2,0,0,1,84.781,41.906ZM41.906,21.961A53.607,53.607,0,0,1,28.88,19.97,53.535,53.535,0,0,1,41.906,2.976Zm0,3.067V41.906H23.539a53.672,53.672,0,0,1,4.055-19.075A57.132,57.132,0,0,0,41.906,25.028Zm3.065,0a56.9,56.9,0,0,0,14.31-2.2,53.673,53.673,0,0,1,4.057,19.079H44.971Zm0-3.067V2.976A53.535,53.535,0,0,1,58,19.97,53.607,53.607,0,0,1,44.971,21.961Zm15.97-2.914A56.944,56.944,0,0,0,48.958,2.433a41.255,41.255,0,0,1,23.163,11.2A52.732,52.732,0,0,1,60.941,19.047Zm-35,0a52.719,52.719,0,0,1-11.18-5.411,41.254,41.254,0,0,1,23.163-11.2A56.941,56.941,0,0,0,25.936,19.047Zm-2.4,25.924H41.906V60.317A56.2,56.2,0,0,0,27.057,62.7,53.725,53.725,0,0,1,23.539,44.971ZM41.906,63.383V83.9A53.491,53.491,0,0,1,28.241,65.542,53.432,53.432,0,0,1,41.906,63.383ZM44.971,83.9V63.383a53.66,53.66,0,0,1,13.667,2.155A53.5,53.5,0,0,1,44.971,83.9Zm0-23.584V44.971H63.338a53.724,53.724,0,0,1-3.51,17.7A57.08,57.08,0,0,0,44.971,60.317ZM66.4,44.971H84.781a41.186,41.186,0,0,1-9.575,24.959,56.952,56.952,0,0,0-12.473-6.3A56.8,56.8,0,0,0,66.4,44.971ZM13.828,72.317a52.687,52.687,0,0,1,11.5-5.819A56.913,56.913,0,0,0,37.919,84.444,41.279,41.279,0,0,1,13.828,72.317Zm35.13,12.127a56.911,56.911,0,0,0,12.6-17.956,54.376,54.376,0,0,1,11.549,5.771A41.278,41.278,0,0,1,48.958,84.444Z" transform="translate(1 1)" fill="#ad6d2f"/>
    </g>
  </g>
</svg>
