<svg xmlns="http://www.w3.org/2000/svg" id="icon-4" viewBox="0 0 75.635 88.877">
  <g id="coffee-bag-svgrepo-com" transform="translate(-35.012)">
    <path id="Tracé_11" data-name="Tracé 11" d="M94.165,369.627a1.419,1.419,0,0,0-1.813.857l-.785,2.191a1.418,1.418,0,1,0,2.67.958l.786-2.192A1.418,1.418,0,0,0,94.165,369.627Z" transform="translate(-45.792 -299.664)" fill="#ad6d2f"/>
    <path id="Tracé_12" data-name="Tracé 12" d="M106.9,328.2a1.418,1.418,0,0,0-1.72,1.032l-.565,2.257a1.418,1.418,0,1,0,2.751.69l.566-2.259A1.419,1.419,0,0,0,106.9,328.2Z" transform="translate(-56.41 -266.106)" fill="#ad6d2f"/>
    <path id="Tracé_13" data-name="Tracé 13" d="M115.531,285.819a1.419,1.419,0,0,0-1.611,1.2l-.341,2.3a1.418,1.418,0,0,0,1.195,1.611,1.446,1.446,0,0,0,.21.015,1.419,1.419,0,0,0,1.4-1.21l.341-2.3A1.418,1.418,0,0,0,115.531,285.819Z" transform="translate(-63.698 -231.758)" fill="#ad6d2f"/>
    <path id="Tracé_14" data-name="Tracé 14" d="M119.983,242.886a1.419,1.419,0,0,0-1.486,1.347l-.114,2.325a1.418,1.418,0,0,0,1.347,1.486l.071,0a1.418,1.418,0,0,0,1.415-1.348l.114-2.326A1.418,1.418,0,0,0,119.983,242.886Z" transform="translate(-67.604 -196.955)" fill="#ad6d2f"/>
    <path id="Tracé_15" data-name="Tracé 15" d="M119.717,199.82a1.418,1.418,0,0,0-1.326,1.5c.047.754.085,1.523.112,2.286a1.418,1.418,0,0,0,1.417,1.369h.051a1.418,1.418,0,0,0,1.368-1.467c-.028-.789-.067-1.584-.116-2.365A1.422,1.422,0,0,0,119.717,199.82Z" transform="translate(-67.61 -162.032)" fill="#ad6d2f"/>
    <path id="Tracé_16" data-name="Tracé 16" d="M114.783,157.027a1.418,1.418,0,0,0-1.194,1.611l.341,2.3a1.418,1.418,0,0,0,2.806-.415l-.342-2.3A1.417,1.417,0,0,0,114.783,157.027Z" transform="translate(-63.706 -127.321)" fill="#ad6d2f"/>
    <path id="Tracé_17" data-name="Tracé 17" d="M104.62,116.651l.566,2.257a1.418,1.418,0,0,0,2.752-.689l-.566-2.259a1.418,1.418,0,0,0-2.751.69Z" transform="translate(-56.411 -93.162)" fill="#ad6d2f"/>
    <path id="Tracé_18" data-name="Tracé 18" d="M92.341,77.924A1.418,1.418,0,0,0,95.025,77c-.254-.741-.523-1.491-.8-2.229a1.418,1.418,0,1,0-2.656.995C91.836,76.483,92.1,77.207,92.341,77.924Z" transform="translate(-45.789 -59.888)" fill="#ad6d2f"/>
    <path id="Tracé_19" data-name="Tracé 19" d="M362.114,370.485a1.418,1.418,0,1,0-2.67.956l.785,2.192a1.418,1.418,0,1,0,2.67-.958Z" transform="translate(-263.014 -299.664)" fill="#ad6d2f"/>
    <path id="Tracé_20" data-name="Tracé 20" d="M350.79,331.492l-.565-2.257a1.418,1.418,0,1,0-2.752.688l.566,2.259a1.418,1.418,0,1,0,2.751-.689Z" transform="translate(-253.34 -266.105)" fill="#ad6d2f"/>
    <path id="Tracé_21" data-name="Tracé 21" d="M341.6,290.926a1.418,1.418,0,0,0,1.195-1.611l-.341-2.3a1.418,1.418,0,1,0-2.806.415l.341,2.3a1.417,1.417,0,0,0,1.611,1.195Z" transform="translate(-247.014 -231.757)" fill="#ad6d2f"/>
    <path id="Tracé_22" data-name="Tracé 22" d="M337.617,248.044a1.418,1.418,0,0,0,1.347-1.486l-.114-2.325a1.418,1.418,0,1,0-2.833.139l.114,2.325a1.418,1.418,0,0,0,1.415,1.348Z" transform="translate(-244.083 -196.955)" fill="#ad6d2f"/>
    <path id="Tracé_23" data-name="Tracé 23" d="M337.38,204.977h.051a1.418,1.418,0,0,0,1.416-1.368c.027-.763.064-1.532.112-2.286a1.418,1.418,0,0,0-2.831-.178c-.049.78-.088,1.576-.116,2.364A1.418,1.418,0,0,0,337.38,204.977Z" transform="translate(-244.08 -162.031)" fill="#ad6d2f"/>
    <path id="Tracé_24" data-name="Tracé 24" d="M340.83,162.138a1.416,1.416,0,0,0,1.61-1.2l.341-2.3a1.418,1.418,0,0,0-2.806-.416l-.341,2.3A1.418,1.418,0,0,0,340.83,162.138Z" transform="translate(-247.006 -127.323)" fill="#ad6d2f"/>
    <path id="Tracé_25" data-name="Tracé 25" d="M348.5,119.941a1.416,1.416,0,0,0,1.72-1.031l.566-2.258a1.418,1.418,0,0,0-2.751-.69l-.566,2.259a1.418,1.418,0,0,0,1.031,1.72Z" transform="translate(-253.336 -93.163)" fill="#ad6d2f"/>
    <path id="Tracé_26" data-name="Tracé 26" d="M362.063,73.945a1.418,1.418,0,0,0-1.826.831c-.276.738-.546,1.488-.8,2.229a1.418,1.418,0,1,0,2.683.92c.245-.716.505-1.441.772-2.154A1.418,1.418,0,0,0,362.063,73.945Z" transform="translate(-263.015 -59.888)" fill="#ad6d2f"/>
    <path id="Tracé_27" data-name="Tracé 27" d="M102.682,8.664V1.418A1.418,1.418,0,0,0,101.264,0H44.4a1.418,1.418,0,0,0-1.418,1.418V8.664a84.318,84.318,0,0,0,0,71.548v7.246A1.418,1.418,0,0,0,44.4,88.877h56.868a1.418,1.418,0,0,0,1.418-1.418V80.213a84.317,84.317,0,0,0,0-71.548ZM100.825,77.45A1.416,1.416,0,0,0,99.5,79.466l.346.743V86.04H45.814V81.313H95.591a1.418,1.418,0,0,0,0-2.836H45.3a80.937,80.937,0,0,1-.465-67.05c.014,0,.028,0,.042,0A1.419,1.419,0,0,0,46.16,9.411l-.347-.744V2.836H99.845V7.564H50.068a1.418,1.418,0,0,0,0,2.836H100.36A80.938,80.938,0,0,1,100.825,77.45Z" fill="#ad6d2f"/>
    <path id="Tracé_28" data-name="Tracé 28" d="M191.7,180.7a18.489,18.489,0,0,0-5.251-9.486c-3.424-3.424-7.834-5.468-11.8-5.468a8.877,8.877,0,0,0-6.45,2.478c-2.11,2.11-2.912,5.221-2.261,8.761a18.49,18.49,0,0,0,5.251,9.486c3.424,3.424,7.834,5.468,11.8,5.468a8.879,8.879,0,0,0,6.446-2.475c2.115-2.119,2.916-5.228,2.265-8.765Zm-8.71,8.4c-3.227,0-6.888-1.733-9.791-4.637a15.64,15.64,0,0,1-4.467-7.994,7.566,7.566,0,0,1,.616-5.1l3.7,3.7a1.418,1.418,0,0,0,2.006-2.006l-3.7-3.7a6.718,6.718,0,0,1,3.3-.786c3.227,0,6.888,1.733,9.791,4.637a15.64,15.64,0,0,1,4.467,7.994,7.567,7.567,0,0,1-.616,5.1l-9.234-9.234a1.418,1.418,0,0,0-2.006,2.006l9.235,9.235A6.717,6.717,0,0,1,182.994,189.1Z" transform="translate(-105.996 -134.401)" fill="#ad6d2f"/>
  </g>
</svg>
