<svg id="icon-2" xmlns="http://www.w3.org/2000/svg" viewBox="0 0 122.41 88.877">
  <g id="quality-svgrepo-com" transform="translate(0 -93.87)">
    <g id="Groupe_4" data-name="Groupe 4" transform="translate(36.723 117.259)">
      <g id="Groupe_3" data-name="Groupe 3" transform="translate(0 0)">
        <path id="Tracé_2" data-name="Tracé 2" d="M199.928,186.907l-6.12-7.016a1.859,1.859,0,0,0-2.885,0l-21,24.074-6.718-7.7a1.859,1.859,0,0,0-2.885,0l-6.12,7.016a2.584,2.584,0,0,0,0,3.307l14.281,16.372a1.861,1.861,0,0,0,2.885,0l28.562-32.744A2.584,2.584,0,0,0,199.928,186.907Zm-30,31.09-11.4-13.065,3.236-3.709,6.718,7.7a1.859,1.859,0,0,0,2.885,0l21-24.074,3.236,3.709Z" transform="translate(-153.602 -179.204)" fill="#ad6d2f"/>
      </g>
    </g>
    <g id="Groupe_6" data-name="Groupe 6" transform="translate(0 93.87)">
      <g id="Groupe_5" data-name="Groupe 5">
        <path id="Tracé_3" data-name="Tracé 3" d="M121.936,150.845l-9.111-12.536,9.111-12.536a2.616,2.616,0,0,0,.282-2.488,2.045,2.045,0,0,0-1.848-1.347H93.576l-1.789-14.363a2.152,2.152,0,0,0-2.02-2.009H74.185c-2.4-2.3-11.674-11.152-11.674-11.152a1.84,1.84,0,0,0-2.611,0L48.226,105.566H32.643a2.154,2.154,0,0,0-2.02,2.007l-1.789,14.365H2.041a2.045,2.045,0,0,0-1.848,1.347,2.608,2.608,0,0,0,.282,2.488l9.111,12.536L.475,150.845a2.616,2.616,0,0,0-.282,2.488,2.041,2.041,0,0,0,1.848,1.347H28.834c.545,4.362,1.791,14.365,1.791,14.365a2.15,2.15,0,0,0,2.018,2.007H48.226L59.9,182.2a1.842,1.842,0,0,0,2.611,0l11.672-11.152c3.17,0,15.589.009,15.585,0a2.154,2.154,0,0,0,2.02-2.007s1.247-10,1.791-14.365h26.791a2.045,2.045,0,0,0,1.848-1.347A2.607,2.607,0,0,0,121.936,150.845ZM6.4,150l7.412-10.2a2.606,2.606,0,0,0,0-2.994L6.4,126.615h19.85l-7.412,10.2a2.606,2.606,0,0,0,0,2.994L26.248,150H6.4Zm83.846.839a2.358,2.358,0,0,0-.257.451c-.143.328-.149.341-1.985,15.081-15.034,0-15.048.009-15.466.248a2.114,2.114,0,0,0-.394.295L61.205,177.363,50.27,166.918a1.884,1.884,0,0,0-1.306-.543H34.412c-1.836-14.739-1.842-14.753-1.985-15.081a2.487,2.487,0,0,0-.257-.451l-9.111-12.534,9.111-12.536a2.5,2.5,0,0,0,.453-1.167l1.789-14.363H48.965a1.888,1.888,0,0,0,1.306-.543L61.205,99.255C72.32,109.873,72.328,109.878,72.534,110a1.84,1.84,0,0,0,.912.246H88l1.789,14.365a2.51,2.51,0,0,0,.453,1.167l9.111,12.534Zm5.92-.839,7.412-10.2a2.606,2.606,0,0,0,0-2.994l-7.412-10.2h19.85l-7.412,10.2a2.606,2.606,0,0,0,0,2.994l7.412,10.2Z" transform="translate(0 -93.87)" fill="#ad6d2f"/>
      </g>
    </g>
  </g>
</svg>
