<svg xmlns="http://www.w3.org/2000/svg" id="icon-3" viewBox="0 0 103 98.892">
  <g id="coffee-cup-svgrepo-com_1_" data-name="coffee-cup-svgrepo-com (1)" transform="translate(0 -9.373)">
    <path id="Tracé_4" data-name="Tracé 4" d="M206.644,37.862A1.644,1.644,0,0,1,205,36.219a9.419,9.419,0,0,1,1.282-4.96,6.282,6.282,0,0,0,.909-3.44,6.285,6.285,0,0,0-.909-3.44A9.419,9.419,0,0,1,205,19.418a9.421,9.421,0,0,1,1.282-4.961,6.284,6.284,0,0,0,.909-3.44,1.644,1.644,0,1,1,3.287,0,9.421,9.421,0,0,1-1.282,4.961,6.284,6.284,0,0,0-.909,3.44,6.284,6.284,0,0,0,.909,3.44,9.421,9.421,0,0,1,1.282,4.961,9.418,9.418,0,0,1-1.282,4.96,6.283,6.283,0,0,0-.909,3.44A1.644,1.644,0,0,1,206.644,37.862Z" transform="translate(-160.074)" fill="#ad6d2f"/>
    <path id="Tracé_5" data-name="Tracé 5" d="M266.644,37.862A1.644,1.644,0,0,1,265,36.219a9.418,9.418,0,0,1,1.282-4.96,6.282,6.282,0,0,0,.909-3.44,6.285,6.285,0,0,0-.909-3.44A9.419,9.419,0,0,1,265,19.418a9.421,9.421,0,0,1,1.282-4.961,6.284,6.284,0,0,0,.909-3.44,1.644,1.644,0,1,1,3.287,0,9.421,9.421,0,0,1-1.282,4.961,6.283,6.283,0,0,0-.909,3.44,6.283,6.283,0,0,0,.909,3.44,9.421,9.421,0,0,1,1.282,4.961,9.418,9.418,0,0,1-1.282,4.96,6.282,6.282,0,0,0-.909,3.44A1.644,1.644,0,0,1,266.644,37.862Z" transform="translate(-206.926)" fill="#ad6d2f"/>
    <path id="Tracé_6" data-name="Tracé 6" d="M79.989,207.244h-51.5a8.227,8.227,0,0,1-8.218-8.218V187.44A20.392,20.392,0,0,1,3.9,155.049a1.644,1.644,0,0,1,1.328-.676H86.564a1.644,1.644,0,0,1,1.644,1.644v43.009A8.227,8.227,0,0,1,79.989,207.244ZM6.093,157.66a16.954,16.954,0,0,0-2.806,9.38A17.132,17.132,0,0,0,20.4,184.153h1.515a1.644,1.644,0,0,1,1.644,1.644v13.229a4.936,4.936,0,0,0,4.931,4.931h51.5a4.936,4.936,0,0,0,4.931-4.931V157.66Zm15.822,23.206H20.4A13.83,13.83,0,0,1,7.529,161.988a1.644,1.644,0,0,1,1.529-1.041H21.915a1.644,1.644,0,0,1,1.644,1.644v16.631a1.644,1.644,0,0,1-1.644,1.644ZM10.239,164.235a10.548,10.548,0,0,0,10.032,13.343V164.235Z" transform="translate(0 -113.223)" fill="#ad6d2f"/>
    <path id="Tracé_7" data-name="Tracé 7" d="M349.144,253.137a1.644,1.644,0,0,1-1.644-1.644V226.017a1.644,1.644,0,1,1,3.287,0v25.477A1.644,1.644,0,0,1,349.144,253.137Z" transform="translate(-271.346 -167.883)" fill="#ad6d2f"/>
    <path id="Tracé_8" data-name="Tracé 8" d="M349.144,166.426a1.644,1.644,0,0,1-1.644-1.644v-8.766a1.644,1.644,0,0,1,3.287,0v8.766A1.643,1.643,0,0,1,349.144,166.426Z" transform="translate(-271.346 -113.223)" fill="#ad6d2f"/>
    <path id="Tracé_9" data-name="Tracé 9" d="M121.014,421.583H42.12a6.27,6.27,0,0,1-5.771-4.353l-1.289-4.51a1.644,1.644,0,0,1,3.161-.9l1.288,4.509a3,3,0,0,0,2.61,1.969h78.894a3,3,0,0,0,2.61-1.969l1.288-4.509a1.644,1.644,0,0,1,3.161.9l-1.288,4.51A6.269,6.269,0,0,1,121.014,421.583Z" transform="translate(-27.328 -313.318)" fill="#ad6d2f"/>
    <path id="Tracé_10" data-name="Tracé 10" d="M120.878,413.914H26.644a1.644,1.644,0,0,1,0-3.287h94.234a1.644,1.644,0,0,1,0,3.287Z" transform="translate(-19.521 -313.32)" fill="#ad6d2f"/>
  </g>
</svg>
